<?xml version="1.0" standalone="no"?>
<!DOCTYPE svg PUBLIC "-//W3C//DTD SVG 20010904//EN"
 "http://www.w3.org/TR/2001/REC-SVG-20010904/DTD/svg10.dtd">
<svg version="1.0" xmlns="http://www.w3.org/2000/svg"
 width="512.000000pt" height="512.000000pt" viewBox="0 0 512.000000 512.000000"
 preserveAspectRatio="xMidYMid meet">

<g transform="translate(0.000000,512.000000) scale(0.100000,-0.100000)"
fill="#000000" stroke="none">
<path d="M2332 5109 c-478 -43 -925 -218 -1332 -523 -116 -86 -362 -330 -452
-447 -501 -649 -666 -1458 -457 -2247 84 -317 256 -657 473 -932 86 -109 326
-344 436 -426 345 -259 697 -416 1094 -489 728 -133 1455 46 2046 504 104 80
335 309 416 411 267 338 445 729 519 1140 59 326 59 594 0 920 -72 400 -229
753 -489 1100 -84 112 -317 350 -431 440 -200 158 -482 317 -720 405 -334 123
-739 176 -1103 144z m593 -1393 c19 -8 44 -30 55 -48 20 -33 20 -47 20 -1108
0 -1061 0 -1075 -20 -1108 -24 -40 -81 -66 -124 -58 -16 4 -208 109 -425 235
-218 125 -415 239 -438 252 l-43 24 0 655 0 655 43 24 c23 13 216 125 430 248
213 123 397 228 410 233 32 13 53 12 92 -4z m-1135 -1156 l0 -621 -331 3 -331
3 -34 37 -34 38 0 536 c0 486 2 539 17 565 33 56 48 59 396 59 l317 0 0 -620z
m1877 208 l93 -92 93 92 c83 82 96 92 129 92 28 0 42 -6 57 -26 40 -51 30 -76
-70 -179 l-92 -95 92 -95 c100 -103 110 -128 70 -179 -15 -20 -29 -26 -57 -26
-33 0 -46 10 -129 92 l-93 92 -93 -92 c-88 -86 -97 -92 -135 -92 -32 0 -45 6
-61 26 -38 48 -29 69 76 175 l97 99 -97 99 c-105 106 -114 127 -76 175 16 20
29 26 61 26 38 0 47 -6 135 -92z"/>
</g>
</svg>
